<svg width="32" height="32" viewBox="0 0 32 32" fill="none" xmlns="http://www.w3.org/2000/svg">
<g id="icons/marques/energie/total">
<g id="layer1">
<path id="path2847" d="M17.6193 10.1124C16.6243 10.9053 15.6703 11.955 15.1165 13.1035C13.9783 15.4641 14.6092 17.6337 15.097 19.0419C15.7613 20.9593 17.1067 21.9274 18.71 22.6344C20.9961 23.6426 23.8698 23.7105 26.4791 23.0366C27.3989 22.7991 28.8269 22.3052 29.1386 21.8444C29.4761 21.3456 29.5291 20.3808 28.8041 19.957C28.0971 19.5437 28.0285 19.8593 25.9225 20.3269C24.4568 20.6524 22.8564 20.7089 20.9341 19.8791C19.7218 19.3558 18.9014 18.5527 18.6212 17.4551C17.8173 14.3065 19.554 13.1387 19.8928 12.9252L17.6193 10.1124Z" fill="url(#paint0_linear)"/>
<path id="path2847-3" d="M20.0149 13.8195C19.1099 13.6996 16.4549 13.4183 13.6772 12.9254C9.3789 12.1628 4.32549 11.1051 2.71208 10.9922C-0.392878 10.775 -0.910633 14.8087 1.56805 15.4986C2.97189 15.8894 6.83482 15.479 7.77382 17.3328C8.05985 17.8975 8.81641 20.0267 9.67347 22.6632C10.0095 23.6968 12.7421 23.5343 12.234 21.332C11.9439 20.0744 11.2832 16.6775 11.2832 16.6775C11.2832 16.6775 19.1213 17.5087 19.7591 17.5639L20.0149 13.8195Z" fill="url(#paint1_linear)"/>
<path id="path2847-3-6" d="M24.1424 11.745C25.1377 11.7714 26.8695 12.027 27.6496 12.5488L31.999 13.406C32.0403 10.9919 30.7164 9.6929 29.2328 8.94405C28.1067 8.37565 26.527 7.91278 24.1561 8.01396C21.8891 8.11072 19.5056 8.60728 17.6045 10.1222L19.8766 12.9399C20.9487 12.2644 22.296 11.696 24.1424 11.745V11.745Z" fill="url(#paint2_linear)"/>
<path id="path2847-3-67" d="M27.5804 12.5044C27.5804 12.5044 27.8094 12.6511 27.9089 12.742C28.3826 13.1748 28.5395 13.6919 27.1023 13.9296L28.2391 17.4446C30.8255 16.7516 31.9667 15.2255 31.9985 13.3622L27.5804 12.5044Z" fill="url(#paint3_linear)"/>
<path id="path2847-3-0" d="M27.1453 13.9236C25.8712 14.1344 23.4011 14.2707 19.9955 13.8195L19.7397 17.5638C25.2701 18.0422 27.2149 17.7159 28.282 17.43L27.1453 13.9236Z" fill="url(#paint4_linear)"/>
</g>
</g>
<defs>
<linearGradient id="paint0_linear" x1="18.0449" y1="12.6967" x2="26.3649" y2="21.7329" gradientUnits="userSpaceOnUse">
<stop stop-color="#0186F5"/>
<stop offset="0.13185" stop-color="#0186F5"/>
<stop offset="0.314591" stop-color="#35C2B0"/>
<stop offset="0.666984" stop-color="#AAD825"/>
<stop offset="1" stop-color="#FED700"/>
</linearGradient>
<linearGradient id="paint1_linear" x1="11.2149" y1="22.3484" x2="11.2832" y2="16.6775" gradientUnits="userSpaceOnUse">
<stop stop-color="#FF7F00"/>
<stop offset="1" stop-color="#FE0201"/>
</linearGradient>
<linearGradient id="paint2_linear" x1="18.2665" y1="11.2815" x2="27.4516" y2="11.4578" gradientUnits="userSpaceOnUse">
<stop stop-color="#0186F5"/>
<stop offset="0.198316" stop-color="#0186F5"/>
<stop offset="1" stop-color="#3156FD"/>
</linearGradient>
<linearGradient id="paint3_linear" x1="27.9546" y1="14.7383" x2="28.8013" y2="13.0678" gradientUnits="userSpaceOnUse">
<stop stop-color="#8434D5"/>
<stop offset="0.854207" stop-color="#3156FD"/>
<stop offset="1" stop-color="#3156FD"/>
</linearGradient>
<linearGradient id="paint4_linear" x1="27.0119" y1="15.6696" x2="19.9596" y2="16.0036" gradientUnits="userSpaceOnUse">
<stop stop-color="#8434D5"/>
<stop offset="1" stop-color="#FE0201"/>
</linearGradient>
</defs>
</svg>
